<svg xmlns="http://www.w3.org/2000/svg" version="1.1" xmlns:xlink="http://www.w3.org/1999/xlink" xmlns:svgjs="http://svgjs.dev/svgjs" width="128" height="128" viewBox="0 0 128 128"><g transform="matrix(0.8046875,0,0,0.8046875,12.506335372881338,17.736054875996714)"><svg viewBox="0 0 59 53" data-background-color="#ffffff" preserveAspectRatio="xMidYMid meet" height="114" width="128" xmlns="http://www.w3.org/2000/svg" xmlns:xlink="http://www.w3.org/1999/xlink"><g id="tight-bounds" transform="matrix(1,0,0,1,-0.0036289999999894462,0.2292287277498133)"><svg viewBox="0 0 59.007257999999986 52.541542544500366" height="52.541542544500366" width="59.007257999999986"><g><svg viewBox="0 0 59.007257999999986 52.541542544500366" height="52.541542544500366" width="59.007257999999986"><g><svg viewBox="0 0 59.007257999999986 52.541542544500366" height="52.541542544500366" width="59.007257999999986"><g><svg viewBox="0 0 59.007257999999986 52.541542544500366" height="52.541542544500366" width="59.007257999999986"><g id="textblocktransform"><svg viewBox="0 0 59.007257999999986 52.541542544500366" height="52.541542544500366" width="59.007257999999986" id="textblock"><g><svg viewBox="0 0 59.007257999999986 52.541542544500366" height="52.541542544500366" width="59.007257999999986"><g><svg viewBox="0 0 59.007257999999986 52.541542544500366" height="52.541542544500366" width="59.007257999999986"><g><svg xmlns="http://www.w3.org/2000/svg" xmlns:xlink="http://www.w3.org/1999/xlink" version="1.1" x="0" y="0" viewBox="0.9996113278036923 5 98.0003840434442 87.26199999999999" enable-background="new 0 0 100 100" xml:space="preserve" height="52.541542544500366" width="59.007257999999986" class="icon-icon-0" data-fill-palette-color="accent" id="icon-0"><g fill="#00abe4" data-fill-palette-color="accent"><g fill="#00abe4" data-fill-palette-color="accent"><path d="M98.656 80.699l-9.375-18.5c-0.521-1.546-1.59-2.9-2.932-3.884 1.209-1.048 1.988-2.574 1.988-4.294V10.709C88.338 7.56 85.776 5 82.631 5H17.367c-3.148 0-5.708 2.56-5.708 5.709v43.312c0 1.721 0.782 3.248 1.989 4.295-1.34 0.983-2.408 2.338-2.929 3.883L1.344 80.698c-0.633 1.877-0.386 7.751 0.68 9.232 1.064 1.482 2.809 2.332 4.789 2.332h86.375c1.979 0 3.725-0.85 4.789-2.332C99.042 88.449 99.288 82.575 98.656 80.699zM93.188 85.044H6.812c-1.915 0-2.979-1.485-2.368-3.299l9.375-18.498c0.614-1.812 2.678-3.297 4.592-3.297h63.176c1.913 0 3.979 1.484 4.591 3.297l9.375 18.498C96.165 83.559 95.1 85.044 93.188 85.044zM14.932 10.709c0-1.344 1.092-2.436 2.435-2.436h65.264c1.342 0 2.436 1.092 2.436 2.436v43.312c0 1.343-1.094 2.435-2.436 2.435H17.367c-1.342 0-2.435-1.092-2.435-2.435V10.709z" fill="#00abe4" data-fill-palette-color="accent"></path><path d="M61.964 72.913c-0.12-0.828-0.937-1.478-1.855-1.478H39.889c-0.92 0-1.736 0.649-1.855 1.479l-1.656 6.943c-0.062 0.426 0.076 0.852 0.38 1.165 0.302 0.313 0.748 0.494 1.224 0.494h24.032c0.477 0 0.924-0.181 1.225-0.494 0.304-0.313 0.441-0.739 0.379-1.165L61.964 72.913z" fill="#00abe4" data-fill-palette-color="accent"></path><path d="M20.273 54.055h59.453c1.831 0 3.329-1.499 3.329-3.332V14.005c0-1.831-1.498-3.33-3.329-3.33H20.273c-1.832 0-3.33 1.499-3.33 3.33v36.718C16.943 52.556 18.441 54.055 20.273 54.055z" fill="#00abe4" data-fill-palette-color="accent"></path></g></g></svg></g></svg></g></svg></g></svg></g></svg></g></svg></g></svg></g><defs></defs></svg><rect width="59.007257999999986" height="52.541542544500366" fill="none" stroke="none" visibility="hidden"></rect></g></svg></g></svg>