<svg xmlns="http://www.w3.org/2000/svg" version="1.1" xmlns:xlink="http://www.w3.org/1999/xlink" xmlns:svgjs="http://svgjs.dev/svgjs" width="2000" height="414" viewBox="0 0 2000 414"><g transform="matrix(1,0,0,1,-1.212094271551564,-1.1897429986346992)"><svg viewBox="0 0 396 82" data-background-color="#ffffff" preserveAspectRatio="xMidYMid meet" height="414" width="2000" xmlns="http://www.w3.org/2000/svg" xmlns:xlink="http://www.w3.org/1999/xlink"><g id="tight-bounds" transform="matrix(1,0,0,1,0.23999466576719897,0.2356495794397233)"><svg viewBox="0 0 395.52 81.52870084112052" height="81.52870084112052" width="395.52"><g><svg viewBox="0 0 395.52 81.52870084112052" height="81.52870084112052" width="395.52"><g><svg viewBox="0 0 539.3760306163921 111.18180380510441" height="81.52870084112052" width="395.52"><g transform="matrix(1,0,0,1,143.85603061639213,15.36593670533643)"><svg viewBox="0 0 395.52 80.44993039443155" height="80.44993039443155" width="395.52"><g id="textblocktransform"><svg viewBox="0 0 395.52 80.44993039443155" height="80.44993039443155" width="395.52" id="textblock"><g><svg viewBox="0 0 395.52 80.44993039443155" height="80.44993039443155" width="395.52"><g transform="matrix(1,0,0,1,0,0)"><svg width="395.52" viewBox="4.300000190734863 -38.79999923706055 193.92999267578125 39.45000076293945" height="80.44993039443155" data-palette-color="#00abe4"><path d="M13.65 0.3L13.65 0.3Q12.6 0.3 11.38 0.25 10.15 0.2 8.93 0.1 7.7 0 6.5-0.15 5.3-0.3 4.3-0.55L4.3-0.55 4.3-34.15Q5.3-34.4 6.5-34.55 7.7-34.7 8.93-34.8 10.15-34.9 11.35-34.95 12.55-35 13.6-35L13.6-35Q16.6-35 19.23-34.55 21.85-34.1 23.78-33.02 25.7-31.95 26.8-30.2 27.9-28.45 27.9-25.9L27.9-25.9Q27.9-23.05 26.55-21.23 25.2-19.4 22.95-18.5L22.95-18.5Q26-17.6 27.8-15.65 29.6-13.7 29.6-10.15L29.6-10.15Q29.6-4.95 25.78-2.33 21.95 0.3 13.65 0.3ZM15.35-16.15L9.1-16.15 9.1-3.95Q9.65-3.9 10.4-3.85L10.4-3.85Q11.05-3.8 11.93-3.78 12.8-3.75 13.95-3.75L13.95-3.75Q16.1-3.75 18.03-4.03 19.95-4.3 21.4-5 22.85-5.7 23.73-6.95 24.6-8.2 24.6-10.1L24.6-10.1Q24.6-11.8 23.95-12.98 23.3-14.15 22.08-14.85 20.85-15.55 19.15-15.85 17.45-16.15 15.35-16.15L15.35-16.15ZM9.1-30.75L9.1-20.05 14.2-20.05Q16-20.05 17.6-20.3 19.2-20.55 20.38-21.2 21.55-21.85 22.23-22.9 22.9-23.95 22.9-25.55L22.9-25.55Q22.9-27.05 22.2-28.08 21.5-29.1 20.28-29.73 19.05-30.35 17.4-30.65 15.75-30.95 13.9-30.95L13.9-30.95Q12.05-30.95 11-30.9 9.95-30.85 9.1-30.75L9.1-30.75ZM44.95-3.35L44.95-3.35Q46.6-3.35 47.87-3.43 49.15-3.5 50-3.7L50-3.7 50-11.45Q49.5-11.7 48.37-11.88 47.25-12.05 45.65-12.05L45.65-12.05Q44.6-12.05 43.42-11.9 42.25-11.75 41.27-11.28 40.3-10.8 39.65-9.98 39-9.15 39-7.8L39-7.8Q39-5.3 40.6-4.33 42.2-3.35 44.95-3.35ZM44.55-26.65L44.55-26.65Q47.35-26.65 49.27-25.93 51.2-25.2 52.37-23.88 53.55-22.55 54.05-20.73 54.55-18.9 54.55-16.7L54.55-16.7 54.55-0.45Q53.95-0.35 52.87-0.18 51.8 0 50.45 0.15 49.1 0.3 47.52 0.43 45.95 0.55 44.4 0.55L44.4 0.55Q42.2 0.55 40.35 0.1 38.5-0.35 37.15-1.33 35.8-2.3 35.05-3.9 34.3-5.5 34.3-7.75L34.3-7.75Q34.3-9.9 35.17-11.45 36.05-13 37.55-13.95 39.05-14.9 41.05-15.35 43.05-15.8 45.25-15.8L45.25-15.8Q45.95-15.8 46.7-15.73 47.45-15.65 48.12-15.53 48.8-15.4 49.3-15.3 49.8-15.2 50-15.15L50-15.15 50-16.45Q50-17.6 49.75-18.73 49.5-19.85 48.85-20.73 48.2-21.6 47.07-22.13 45.95-22.65 44.15-22.65L44.15-22.65Q41.85-22.65 40.12-22.33 38.4-22 37.55-21.65L37.55-21.65 37-25.5Q37.9-25.9 40-26.28 42.1-26.65 44.55-26.65ZM79.05-4.05L79.05-20.5Q78.2-21.2 76.59-21.85 75-22.5 73.09-22.5L73.09-22.5Q71.09-22.5 69.67-21.78 68.25-21.05 67.34-19.78 66.45-18.5 66.05-16.75 65.65-15 65.65-13L65.65-13Q65.65-8.45 67.9-5.98 70.15-3.5 73.9-3.5L73.9-3.5Q75.8-3.5 77.07-3.68 78.34-3.85 79.05-4.05L79.05-4.05ZM79.05-24.85L79.05-38 83.7-38.8 83.7-0.75Q82.09-0.3 79.59 0.15 77.09 0.6 73.84 0.6L73.84 0.6Q70.84 0.6 68.45-0.35 66.05-1.3 64.34-3.05 62.65-4.8 61.72-7.33 60.8-9.85 60.8-13L60.8-13Q60.8-16 61.57-18.5 62.35-21 63.85-22.8 65.34-24.6 67.52-25.6 69.7-26.6 72.5-26.6L72.5-26.6Q74.75-26.6 76.47-26 78.2-25.4 79.05-24.85L79.05-24.85ZM101.29-26.55L101.29-26.55Q101.89-26.55 102.67-26.48 103.44-26.4 104.19-26.28 104.94-26.15 105.57-26.03 106.19-25.9 106.49-25.8L106.49-25.8 105.69-21.75Q105.14-21.95 103.87-22.23 102.59-22.5 100.59-22.5L100.59-22.5Q99.29-22.5 98.02-22.23 96.74-21.95 96.34-21.85L96.34-21.85 96.34 0 91.69 0 91.69-24.9Q93.34-25.5 95.79-26.03 98.24-26.55 101.29-26.55ZM113.74-2.7L113.74-2.7Q113.74-1.35 112.84-0.35 111.94 0.65 110.39 0.65L110.39 0.65Q108.84 0.65 107.94-0.35 107.04-1.35 107.04-2.7L107.04-2.7Q107.04-4.05 107.94-5.05 108.84-6.05 110.39-6.05L110.39-6.05Q111.94-6.05 112.84-5.05 113.74-4.05 113.74-2.7ZM137.34-4.05L137.34-20.5Q136.49-21.2 134.89-21.85 133.29-22.5 131.39-22.5L131.39-22.5Q129.39-22.5 127.96-21.78 126.54-21.05 125.64-19.78 124.74-18.5 124.34-16.75 123.94-15 123.94-13L123.94-13Q123.94-8.45 126.19-5.98 128.44-3.5 132.19-3.5L132.19-3.5Q134.09-3.5 135.36-3.68 136.64-3.85 137.34-4.05L137.34-4.05ZM137.34-24.85L137.34-38 141.99-38.8 141.99-0.75Q140.39-0.3 137.89 0.15 135.39 0.6 132.14 0.6L132.14 0.6Q129.14 0.6 126.74-0.35 124.34-1.3 122.64-3.05 120.94-4.8 120.01-7.33 119.09-9.85 119.09-13L119.09-13Q119.09-16 119.86-18.5 120.64-21 122.14-22.8 123.64-24.6 125.81-25.6 127.99-26.6 130.79-26.6L130.79-26.6Q133.04-26.6 134.76-26 136.49-25.4 137.34-24.85L137.34-24.85ZM148.54-12.95L148.54-12.95Q148.54-16.4 149.54-18.98 150.54-21.55 152.19-23.25 153.84-24.95 155.99-25.8 158.14-26.65 160.39-26.65L160.39-26.65Q165.64-26.65 168.44-23.38 171.24-20.1 171.24-13.4L171.24-13.4Q171.24-13.1 171.24-12.63 171.24-12.15 171.19-11.75L171.19-11.75 153.39-11.75Q153.69-7.7 155.74-5.6 157.79-3.5 162.14-3.5L162.14-3.5Q164.59-3.5 166.26-3.93 167.94-4.35 168.79-4.75L168.79-4.75 169.44-0.85Q168.59-0.4 166.46 0.1 164.34 0.6 161.64 0.6L161.64 0.6Q158.24 0.6 155.76-0.43 153.29-1.45 151.69-3.25 150.09-5.05 149.31-7.53 148.54-10 148.54-12.95ZM153.49-15.5L166.39-15.5Q166.44-18.65 164.81-20.68 163.19-22.7 160.34-22.7L160.34-22.7Q158.74-22.7 157.51-22.08 156.29-21.45 155.44-20.45 154.59-19.45 154.11-18.15 153.64-16.85 153.49-15.5L153.49-15.5ZM193.43-26L198.23-26Q196.28-18.7 193.66-12 191.03-5.3 188.58 0L188.58 0 184.38 0Q181.93-5.3 179.31-12 176.68-18.7 174.73-26L174.73-26 179.73-26Q180.33-23.55 181.16-20.78 181.98-18 182.91-15.28 183.83-12.55 184.78-10 185.73-7.45 186.58-5.45L186.58-5.45Q187.43-7.45 188.38-10 189.33-12.55 190.26-15.28 191.18-18 192.01-20.78 192.83-23.55 193.43-26L193.43-26Z" opacity="1" transform="matrix(1,0,0,1,0,0)" fill="#00abe4" class="wordmark-text-0" data-fill-palette-color="primary" id="text-0"></path></svg></g></svg></g></svg></g></svg></g><g><svg viewBox="0 0 124.86373284859631 111.18180380510441" height="111.18180380510441" width="124.86373284859631"><g><svg xmlns="http://www.w3.org/2000/svg" xmlns:xlink="http://www.w3.org/1999/xlink" version="1.1" x="0" y="0" viewBox="0.9996112585067749 5 98.00038146972656 87.26200103759766" enable-background="new 0 0 100 100" xml:space="preserve" height="111.18180380510441" width="124.86373284859631" class="icon-icon-0" data-fill-palette-color="accent" id="icon-0"><g fill="#00abe4" data-fill-palette-color="accent"><g fill="#00abe4" data-fill-palette-color="accent"><path d="M98.656 80.699l-9.375-18.5c-0.521-1.546-1.59-2.9-2.932-3.884 1.209-1.048 1.988-2.574 1.988-4.294V10.709C88.338 7.56 85.776 5 82.631 5H17.367c-3.148 0-5.708 2.56-5.708 5.709v43.312c0 1.721 0.782 3.248 1.989 4.295-1.34 0.983-2.408 2.338-2.929 3.883L1.344 80.698c-0.633 1.877-0.386 7.751 0.68 9.232 1.064 1.482 2.809 2.332 4.789 2.332h86.375c1.979 0 3.725-0.85 4.789-2.332C99.042 88.449 99.288 82.575 98.656 80.699zM93.188 85.044H6.812c-1.915 0-2.979-1.485-2.368-3.299l9.375-18.498c0.614-1.812 2.678-3.297 4.592-3.297h63.176c1.913 0 3.979 1.484 4.591 3.297l9.375 18.498C96.165 83.559 95.1 85.044 93.188 85.044zM14.932 10.709c0-1.344 1.092-2.436 2.435-2.436h65.264c1.342 0 2.436 1.092 2.436 2.436v43.312c0 1.343-1.094 2.435-2.436 2.435H17.367c-1.342 0-2.435-1.092-2.435-2.435V10.709z" fill="#00abe4" data-fill-palette-color="accent"></path><path d="M61.964 72.913c-0.12-0.828-0.937-1.478-1.855-1.478H39.889c-0.92 0-1.736 0.649-1.855 1.479l-1.656 6.943c-0.062 0.426 0.076 0.852 0.38 1.165 0.302 0.313 0.748 0.494 1.224 0.494h24.032c0.477 0 0.924-0.181 1.225-0.494 0.304-0.313 0.441-0.739 0.379-1.165L61.964 72.913z" fill="#00abe4" data-fill-palette-color="accent"></path><path d="M20.273 54.055h59.453c1.831 0 3.329-1.499 3.329-3.332V14.005c0-1.831-1.498-3.33-3.329-3.33H20.273c-1.832 0-3.33 1.499-3.33 3.33v36.718C16.943 52.556 18.441 54.055 20.273 54.055z" fill="#00abe4" data-fill-palette-color="accent"></path></g></g></svg></g></svg></g></svg></g></svg></g><defs></defs></svg><rect width="395.52" height="81.52870084112052" fill="none" stroke="none" visibility="hidden"></rect></g></svg></g></svg>